<svg xmlns="http://www.w3.org/2000/svg" width="60.617" height="62.48" viewBox="0 0 60.617 62.48">
  <g id="cash" transform="translate(-7.327 0)">
    <path id="Path_202" data-name="Path 202" d="M278.618,4.161c-4.194,10.332-6.3,20.321-7.966,31.422a122.932,122.932,0,0,1-14.071-1.72c1.013-11.181,1.333-21.388-.293-32.432C265.929-.987,269.829-.51,278.618,4.161Z" transform="translate(-217.314 0)" fill="#3ea69b"/>
    <path id="Path_203" data-name="Path 203" d="M279.353,44.481c-3.363-.36-5-.56-8.352-1.021a2.153,2.153,0,0,0-1.631-2.5,174.571,174.571,0,0,0,.325-25.64c1.524-.435,2.731-1.618,2.659-2.83,5.336-1.037,8.081-.7,13.017,1.591-.357,1.159.535,2.6,1.912,3.389a174.444,174.444,0,0,0-5.757,24.976A2.143,2.143,0,0,0,279.353,44.481Z" transform="translate(-228.733 -10.417)" fill="#44c4a1"/>
    <g id="Group_2" data-name="Group 2" transform="translate(42.89 3.315)">
      <path id="Path_204" data-name="Path 204" d="M293.121,101.958c3.226.394,5.28,3.314,4.79,5.774s-3.094,3.969-5.919,3.623-5-2.438-4.89-4.945S289.9,101.564,293.121,101.958Z" transform="translate(-287.098 -92.275)" fill="#3ea69b"/>
      <path id="Path_205" data-name="Path 205" d="M334.055,26.087a1.191,1.191,0,0,1,1.125,1.256,1.278,1.278,0,1,1-1.125-1.256Z" transform="translate(-326.869 -26.076)" fill="#3ea69b"/>
      <ellipse id="Ellipse_4" data-name="Ellipse 4" cx="0.868" cy="1.071" rx="0.868" ry="1.071" transform="matrix(-0.993, -0.119, 0.119, -0.993, 4.591, 28.865)" fill="#3ea69b"/>
    </g>
    <path id="Path_206" data-name="Path 206" d="M304.089,118.983c-.3-.074-.451-.109-.753-.177a5.425,5.425,0,0,1-1.553,2.573c-.3-.4-.452-.592-.76-.984a4.309,4.309,0,0,0,1.183-1.825c-.806-.156-1.211-.222-2.023-.331a5.278,5.278,0,0,1-.965,1.822,1.618,1.618,0,0,1-1.4.475,1.806,1.806,0,0,1-1.388-.79,2.961,2.961,0,0,1-.493-1.819c-.212,0-.318,0-.53,0,.017-.29.026-.434.042-.724.219,0,.328,0,.546,0a5.065,5.065,0,0,1,.972-2.367c.389.3.58.459.957.779a3.909,3.909,0,0,0-.764,1.617c.8.033,1.2.061,2,.141l0-.035a4.671,4.671,0,0,1,1.011-1.865,1.677,1.677,0,0,1,1.544-.4,1.979,1.979,0,0,1,1.433,1.023,3.164,3.164,0,0,1,.315,2c.3.07.45.106.749.182C304.167,118.555,304.141,118.7,304.089,118.983Zm-6.809-.2a.709.709,0,0,0,.556.332.72.72,0,0,0,.573-.186,2.558,2.558,0,0,0,.485-.842c-.728-.07-1.093-.1-1.823-.129A1.442,1.442,0,0,0,297.279,118.787Zm4.912-1.866a.781.781,0,0,0-.57-.435.725.725,0,0,0-.63.154,2.506,2.506,0,0,0-.534.885c.761.107,1.14.171,1.895.322A1.737,1.737,0,0,0,302.191,116.921Z" transform="translate(-251.462 -100.236)" fill="#44c4a1"/>
    <path id="Path_207" data-name="Path 207" d="M283.165,30.051c-6.926,8.35-11.794,17.125-16.569,27.12a128.057,128.057,0,0,1-12.706-6.713C258.076,40.152,261.331,30.524,263,19.4,272.748,20.564,276.269,22.425,283.165,30.051Z" transform="translate(-215.221 -16.931)" fill="#3ea69b"/>
    <path id="Path_208" data-name="Path 208" d="M279.9,70.47c-3.052-1.556-4.53-2.337-7.542-3.985a2.333,2.333,0,0,0-.808-2.971,172.731,172.731,0,0,0,7.726-24.356c1.556.135,3.031-.56,3.314-1.743,5.307.934,7.786,2.244,11.754,6.211-.671.978-.25,2.674.814,3.924a165.115,165.115,0,0,0-12.63,21.765A1.967,1.967,0,0,0,279.9,70.47Z" transform="translate(-230.639 -32.66)" fill="#44c4a1"/>
    <g id="Group_3" data-name="Group 3" transform="translate(45.63 8.108)">
      <path id="Path_209" data-name="Path 209" d="M323.361,129.808c2.913,1.539,4,5.067,2.824,7.238s-4.052,2.673-6.6,1.325-3.984-4.128-3.158-6.482S320.448,128.269,323.361,129.808Z" transform="translate(-315.232 -120.827)" fill="#3ea69b"/>
      <path id="Path_210" data-name="Path 210" d="M391.9,63.953a1.3,1.3,0,0,1,.693,1.6,1.089,1.089,0,0,1-1.548.333,1.289,1.289,0,0,1-.724-1.533A1.1,1.1,0,0,1,391.9,63.953Z" transform="translate(-379.881 -63.786)" fill="#3ea69b"/>
      <path id="Path_211" data-name="Path 211" d="M309.968,255.317a1.066,1.066,0,0,1,.35,1.38.9.9,0,0,1-1.206.557,1.072,1.072,0,0,1-.351-1.379A.9.9,0,0,1,309.968,255.317Z" transform="translate(-308.653 -230.897)" fill="#3ea69b"/>
    </g>
    <path id="Path_212" data-name="Path 212" d="M333.1,143.305c-.261-.179-.392-.267-.656-.441a4.918,4.918,0,0,1-2.2,1.9c-.168-.485-.253-.728-.428-1.213a3.893,3.893,0,0,0,1.639-1.316c-.711-.439-1.072-.649-1.8-1.045a4.8,4.8,0,0,1-1.433,1.391,1.537,1.537,0,0,1-1.45-.05,1.984,1.984,0,0,1-1.074-1.255,3.106,3.106,0,0,1,.063-1.914c-.2-.08-.3-.119-.5-.2.1-.27.15-.405.249-.676.206.078.308.117.512.2a4.67,4.67,0,0,1,1.6-1.908c.277.429.412.647.673,1.088a3.577,3.577,0,0,0-1.184,1.268c.744.321,1.112.492,1.838.856l.014-.032a4.244,4.244,0,0,1,1.489-1.416,1.614,1.614,0,0,1,1.565.173,2.187,2.187,0,0,1,1.049,1.493,3.249,3.249,0,0,1-.283,2.02c.261.175.392.264.65.444C333.3,142.925,333.232,143.052,333.1,143.305Zm-6.333-2.642a.779.779,0,0,0,.425.517.686.686,0,0,0,.592.029,2.317,2.317,0,0,0,.7-.629c-.662-.329-1-.485-1.674-.78A1.51,1.51,0,0,0,326.768,140.663Zm5.149-.01a.864.864,0,0,0-.409-.621.7.7,0,0,0-.635-.08,2.266,2.266,0,0,0-.758.652c.683.376,1.02.575,1.685.99A1.789,1.789,0,0,0,331.917,140.653Z" transform="translate(-277.521 -119.391)" fill="#44c4a1"/>
    <path id="Path_213" data-name="Path 213" d="M117.48,170.27h0a4.274,4.274,0,0,0-4.226-4.32h-.287a47.6,47.6,0,0,0-9.47,0h-.562v.065a22.107,22.107,0,0,0-3.145.574l-.224-6.514L96.6,160.7a8.5,8.5,0,0,0-4.4,2.536l-6.467,7.02A8.5,8.5,0,0,1,79.489,173h-.818l-3.2,23.2,8.095.071c11.5,4.544,25.349,2.946,25.349,2.946h1.19a4.274,4.274,0,0,0,4.226-4.32h0a4.324,4.324,0,0,0-2.454-3.918h.292a4.274,4.274,0,0,0,4.226-4.32h0a4.325,4.325,0,0,0-2.4-3.89,4.293,4.293,0,0,0,3.477-4.248h0a4.312,4.312,0,0,0-2.964-4.124A4.313,4.313,0,0,0,117.48,170.27Z" transform="translate(-59.486 -139.726)" fill="#fcd462"/>
    <rect id="Rectangle_536" data-name="Rectangle 536" width="13.562" height="32.919" transform="translate(7.327 29.561)" fill="#27a2db"/>
    <circle id="Ellipse_5" data-name="Ellipse 5" cx="2.379" cy="2.379" r="2.379" transform="translate(11.729 54.907)" fill="#1c75a1"/>
  </g>
</svg>
