<svg xmlns="http://www.w3.org/2000/svg" width="45.771" height="45.771" viewBox="0 0 45.771 45.771">
  <g id="gears" transform="translate(0.001 0)">
    <path id="Path_214" data-name="Path 214" d="M45.771,22.769A22.9,22.9,0,0,1,18.359,45.322a1.715,1.715,0,0,1-1.373-1.684,1.622,1.622,0,0,0-1.622-1.622H10.814a1.6,1.6,0,0,1-.911-.284,23.011,23.011,0,0,1-6.015-6.084,1.838,1.838,0,0,1-.312-1.027V29.7a1.99,1.99,0,0,0-1.99-1.99A1.3,1.3,0,0,1,.3,26.622a22.887,22.887,0,1,1,45.466-3.853Zm0,0" transform="translate(-0.001)" fill="#025f80"/>
    <path id="Path_215" data-name="Path 215" d="M19.059,4.685c.059-.189.116-.367.154-.475A17.453,17.453,0,0,1,21.336.053C21.848.019,22.364,0,22.885,0c.173,0,.345,0,.516.007a15.823,15.823,0,0,0-2.649,4.717c-.036.1-.089.267-.145.446a.811.811,0,1,1-1.548-.484ZM45.765,22.4a15.918,15.918,0,0,1-23.606-4.085l.782-.428a.358.358,0,0,0-.025-.64l-2.529-1.135a.358.358,0,0,0-.5.274l-.4,2.742a.358.358,0,0,0,.526.366l.727-.4a17.518,17.518,0,0,0,24.982,5.348c.035-.515.054-1.035.054-1.56,0-.162,0-.323-.006-.483Zm-21.333,19.5a.811.811,0,0,0-1.007.528c-.058.178-.113.345-.149.445a15.874,15.874,0,0,1-1.387,2.869c.33.014.662.023,1,.023.293,0,.584-.007.874-.018a17.593,17.593,0,0,0,1.051-2.347c.039-.108.1-.285.158-.474A.812.812,0,0,0,24.431,41.906Zm-.183-10.684.43-2.738a.357.357,0,0,0-.522-.371l-.731.391A17.517,17.517,0,0,0,.018,22c-.011.293-.019.588-.019.885,0,.324.008.645.022.966a15.922,15.922,0,0,1,21.973,5.421l-.786.421a.358.358,0,0,0,.02.64l2.518,1.158a.358.358,0,0,0,.5-.27Zm.557,1.452a.782.782,0,1,0,.522.975A.782.782,0,0,0,24.805,32.675Zm-.365,3.07a.782.782,0,1,0,1.006-.458A.782.782,0,0,0,24.44,35.745Zm1.07,1.727a.782.782,0,1,0,.459,1.006A.782.782,0,0,0,25.509,37.472Zm-.249,2.28a.782.782,0,1,0,.459,1.006A.782.782,0,0,0,25.26,39.752ZM19.317,14.941a.782.782,0,1,0-.531-.97.782.782,0,0,0,.531.97Zm.337-3.074a.782.782,0,1,0-1,.468A.782.782,0,0,0,19.653,11.868Zm-1.086-1.717a.782.782,0,1,0-.468-1,.782.782,0,0,0,.468,1ZM18.8,7.868a.782.782,0,1,0-.468-1,.782.782,0,0,0,.468,1Zm0,0" transform="translate(0 0)" fill="#88b9d3"/>
    <path id="Path_216" data-name="Path 216" d="M21.448,284.21a22.759,22.759,0,0,1-8.676-3.679,4.495,4.495,0,1,0-5.713-5.717,22.757,22.757,0,0,1-3.8-9.416,1.956,1.956,0,0,1,.78.367l.663.516a12.077,12.077,0,0,1,1.879-1.013l-.081-.79a1.963,1.963,0,0,1,3.771-.94l.315.776a11.878,11.878,0,0,1,2.136.063l.324-.723a1.963,1.963,0,0,1,3.736,1.072l-.115.831a11.89,11.89,0,0,1,1.82,1.12l.64-.463a1.963,1.963,0,0,1,2.7,2.8l-.516.663a12.057,12.057,0,0,1,1.014,1.879l.79-.081a1.963,1.963,0,0,1,.939,3.771l-.775.315a11.912,11.912,0,0,1-.063,2.136l.723.324a1.963,1.963,0,0,1-1.072,3.736l-.831-.115a11.945,11.945,0,0,1-1.12,1.82l.463.641c.026.036.049.074.073.111Zm0,0" transform="translate(-2.964 -238.863)" fill="#fdbf43"/>
    <path id="Path_217" data-name="Path 217" d="M34.337,339.365a4.495,4.495,0,0,0-8.551-2.768,22.872,22.872,0,0,1-1.966-3.416,7.9,7.9,0,1,1,11.092,11.1,22.817,22.817,0,0,1-3.412-1.967A4.487,4.487,0,0,0,34.337,339.365Zm0,0" transform="translate(-21.692 -300.647)" fill="#fda800"/>
    <path id="Path_218" data-name="Path 218" d="M25.167,335.668a22.886,22.886,0,0,1-1.347-2.477,7.922,7.922,0,0,1,6.121-3.019,7.886,7.886,0,0,0-4.658,5.062c-.044.144-.081.289-.116.433Zm0,0" transform="translate(-21.692 -300.656)" fill="#fc9302"/>
    <path id="Path_219" data-name="Path 219" d="M247.489,1.66a1.964,1.964,0,0,0,.1,2.173l.469.636a11.9,11.9,0,0,0-1.1,1.831l-.832-.108a1.963,1.963,0,0,0-1.037,3.746l.726.317a11.869,11.869,0,0,0-.043,2.137l-.772.322a1.963,1.963,0,0,0,.975,3.763l.789-.089a12.016,12.016,0,0,0,1.031,1.87l-.51.668A1.963,1.963,0,0,0,250.01,21.7l.636-.469a11.9,11.9,0,0,0,1.83,1.1l-.107.832a1.963,1.963,0,0,0,3.746,1.037l.317-.725a11.9,11.9,0,0,0,2.137.043l.322.772a1.963,1.963,0,0,0,3.763-.974l-.089-.789a12.072,12.072,0,0,0,1.87-1.031l.668.51a1.963,1.963,0,0,0,2.528-.125A22.893,22.893,0,0,0,247.489,1.66Zm14.56,11.157a4.5,4.5,0,1,1-3.055-5.575A4.5,4.5,0,0,1,262.048,12.817Zm0,0" transform="translate(-221.999 -1.512)" fill="#f18bc3"/>
    <path id="Path_220" data-name="Path 220" d="M316.837,28.168a7.9,7.9,0,1,0,9.929,9.936,22.983,22.983,0,0,0-9.929-9.936Zm5.655,8.477a3.387,3.387,0,1,1-2.3-4.2,3.387,3.387,0,0,1,2.3,4.2Zm0,0" transform="translate(-283.506 -25.65)" fill="#e659a9"/>
    <path id="Path_221" data-name="Path 221" d="M320.227,43.535a7.9,7.9,0,0,1-3.391-15.368q.428.219.844.457a7.9,7.9,0,0,0,2.547,14.91Zm0,0" transform="translate(-283.505 -25.65)" fill="#df3d9b"/>
    <path id="Path_222" data-name="Path 222" d="M32.994,42.21a6.3,6.3,0,0,0-.1-1.134l.39-.215a1.045,1.045,0,0,0-.732-1.936l-.413.092a6.4,6.4,0,0,0-.653-.931l.232-.383a1.045,1.045,0,0,0-1.6-1.311l-.31.285a6.333,6.333,0,0,0-1.033-.479l.009-.447a1.045,1.045,0,0,0-2.043-.334l-.126.4a6.325,6.325,0,0,0-1.134.1l-.215-.39a1.045,1.045,0,0,0-1.936.732l.092.413a6.418,6.418,0,0,0-.93.653l-.383-.232A1.045,1.045,0,0,0,20.8,38.7l.285.31a6.328,6.328,0,0,0-.479,1.032l-.447-.009a1.046,1.046,0,0,0-.334,2.043l.4.126a6.325,6.325,0,0,0,.1,1.134l-.39.215a1.045,1.045,0,0,0,.732,1.936l.413-.092a6.4,6.4,0,0,0,.653.931l-.232.383a1.045,1.045,0,0,0,1.6,1.311l.31-.285a6.342,6.342,0,0,0,1.032.479l-.009.447a1.045,1.045,0,0,0,2.043.334l.126-.4a6.327,6.327,0,0,0,1.134-.1l.215.39a1.045,1.045,0,0,0,1.936-.732l-.092-.413a6.449,6.449,0,0,0,.931-.653l.383.231a1.045,1.045,0,0,0,1.311-1.6l-.285-.31a6.332,6.332,0,0,0,.479-1.033l.447.009a1.045,1.045,0,0,0,.334-2.043Zm-4.027.415a2.394,2.394,0,1,1-1.937-2.776A2.394,2.394,0,0,1,28.967,42.625Zm0,0" transform="translate(-17.385 -31.586)" fill="#0ed1b2"/>
    <path id="Path_223" data-name="Path 223" d="M58.6,69.029A4.455,4.455,0,1,0,62.207,74.2,4.455,4.455,0,0,0,58.6,69.029Zm2.225,4.92a3.052,3.052,0,1,1-2.471-3.54,3.052,3.052,0,0,1,2.471,3.54Zm0,0" transform="translate(-48.596 -62.795)" fill="#0ab59e"/>
    <path id="Path_224" data-name="Path 224" d="M58.527,77.828a4.454,4.454,0,1,1-.008-8.8,4.456,4.456,0,0,0-3.681,3.618,4.538,4.538,0,0,0-.068.7c0,.057,0,.114,0,.17a4.456,4.456,0,0,0,3.674,4.3l.083.013Zm0,0" transform="translate(-48.596 -62.81)" fill="#01988c"/>
    <path id="Path_225" data-name="Path 225" d="M325.634,336.98a3.105,3.105,0,1,0-4.481,4.1,22.814,22.814,0,0,1-4.747,2.536,8.36,8.36,0,0,1-.623-.929l-.535.119a1.356,1.356,0,0,1-.949-2.512l.506-.279a8.214,8.214,0,0,1-.13-1.471l-.522-.163a1.356,1.356,0,0,1,.433-2.65l.579.012a8.274,8.274,0,0,1,.621-1.339l-.369-.4a1.356,1.356,0,0,1,1.7-2.078l.5.3a8.35,8.35,0,0,1,1.207-.847l-.119-.535a1.356,1.356,0,0,1,2.512-.949l.279.506a8.219,8.219,0,0,1,1.471-.13l.164-.522a1.356,1.356,0,0,1,2.649.433l-.012.579a8.23,8.23,0,0,1,1.339.621l.4-.369a1.355,1.355,0,0,1,1.769-.056A22.871,22.871,0,0,1,325.634,336.98Zm0,0" transform="translate(-285.203 -299.402)" fill="#7ecd00"/>
    <path id="Path_226" data-name="Path 226" d="M369.671,377.166a23.048,23.048,0,0,1-1.422,1.887,3.105,3.105,0,1,0-4.481,4.1,22.937,22.937,0,0,1-1.963,1.223,5.363,5.363,0,1,1,7.866-7.208Zm0,0" transform="translate(-327.818 -341.476)" fill="#6bae01"/>
    <path id="Path_227" data-name="Path 227" d="M362.779,383.8q-.48.3-.975.573a5.359,5.359,0,0,1,4.321-9.319,5.361,5.361,0,0,0-3.346,8.746Zm0,0" transform="translate(-327.818 -341.476)" fill="#5a9001"/>
  </g>
</svg>
