<svg xmlns="http://www.w3.org/2000/svg" width="106.511" height="95.32" viewBox="0 0 106.511 95.32">
  <g id="wallet" transform="translate(1.5 -25.767)">
    <path id="Path_9" data-name="Path 9" d="M8.087,83H88.955a8.111,8.111,0,0,1,8.087,8.087v9.7a8.111,8.111,0,0,1-8.087,8.087H8.087A8.111,8.111,0,0,1,0,100.791v-9.7A8.111,8.111,0,0,1,8.087,83Z" transform="translate(0 -44.281)" fill="#fff" stroke="#00900b" stroke-width="3"/>
    <path id="Path_10" data-name="Path 10" d="M66.484,72.728,117.108,59.3a3.248,3.248,0,0,1,3.962,2.264l8.41,31.053a3.248,3.248,0,0,1-2.264,3.962L61.309,114.132a3.248,3.248,0,0,1-3.962-2.264L51.2,89.063Z" transform="translate(-40.687 -25.356)" fill="#00900b" stroke="#fff" stroke-width="3"/>
    <path id="Path_11" data-name="Path 11" d="M141.708,120.663l-10.917,2.911a1.589,1.589,0,1,1-.809-3.073l9.381-2.507-5.014-18.761-9.381,2.507a1.589,1.589,0,0,1-.809-3.073l10.917-2.911a1.5,1.5,0,0,1,1.941,1.132l5.823,21.834A1.5,1.5,0,0,1,141.708,120.663ZM96.421,132.874,85.5,135.786a1.5,1.5,0,0,1-1.941-1.132l-5.823-21.834a1.5,1.5,0,0,1,1.132-1.941l10.917-2.911a1.589,1.589,0,0,1,.809,3.073l-9.381,2.507,5.014,18.761,9.381-2.507a1.5,1.5,0,0,1,1.941,1.132A1.568,1.568,0,0,1,96.421,132.874Z" transform="translate(-61.729 -54.369)" fill="#fff" stroke="#00900b" stroke-width="3"/>
    <path id="Path_12" data-name="Path 12" d="M2.837,58.693C17.231,50.444,56.048,27.72,56.048,27.72A3.268,3.268,0,0,1,60.5,28.853L76.67,56.671a3.2,3.2,0,0,1-1.213,4.367L16.261,95a3.268,3.268,0,0,1-4.448-1.132S7.285,84.652,2.756,76.888C2.756,58.693,2.837,64.677,2.837,58.693Z" transform="translate(-2.19)" fill="#00900b" stroke="#fff" stroke-width="3"/>
    <path id="Path_13" data-name="Path 13" d="M71.84,87.206,60.519,67.636a1.537,1.537,0,0,0-2.183-.566L48.55,72.73a1.595,1.595,0,1,0,1.617,2.75l8.41-4.852,9.7,16.821L59.872,92.3a1.595,1.595,0,1,0,1.617,2.75l9.785-5.661A1.568,1.568,0,0,0,71.84,87.206ZM28.98,110.092l-8.41,4.852-9.7-16.821,8.41-4.852a1.595,1.595,0,0,0-1.617-2.75L7.874,96.182a1.537,1.537,0,0,0-.566,2.183l11.321,19.57a1.537,1.537,0,0,0,2.183.566l9.785-5.661a1.537,1.537,0,0,0,.566-2.183A1.568,1.568,0,0,0,28.98,110.092ZM33.1,81.545a12.969,12.969,0,1,0,17.71,4.771A12.958,12.958,0,0,0,33.1,81.545ZM71.84,87.206,60.519,67.636a1.537,1.537,0,0,0-2.183-.566L48.55,72.73a1.595,1.595,0,1,0,1.617,2.75l8.41-4.852,9.7,16.821L59.872,92.3a1.595,1.595,0,1,0,1.617,2.75l9.785-5.661A1.568,1.568,0,0,0,71.84,87.206ZM28.98,110.092l-8.41,4.852-9.7-16.821,8.41-4.852a1.595,1.595,0,0,0-1.617-2.75L7.874,96.182a1.537,1.537,0,0,0-.566,2.183l11.321,19.57a1.537,1.537,0,0,0,2.183.566l9.785-5.661a1.537,1.537,0,0,0,.566-2.183A1.568,1.568,0,0,0,28.98,110.092ZM33.1,81.545a12.969,12.969,0,1,0,17.71,4.771A12.958,12.958,0,0,0,33.1,81.545Z" transform="translate(-5.609 -31.424)" fill="#fff" stroke="#00900b" stroke-width="3"/>
    <path id="Path_14" data-name="Path 14" d="M92.19,195.165H8.087A8.111,8.111,0,0,1,0,187.078V128.854H92.19a8.111,8.111,0,0,1,8.087,8.087v50.138A8.111,8.111,0,0,1,92.19,195.165ZM6.47,128.854H0v-6.47A6.489,6.489,0,0,0,6.47,128.854Z" transform="translate(0 -75.579)" fill="#fff" stroke="#00900b" stroke-width="3"/>
    <path id="Path_15" data-name="Path 15" d="M394.476,290.751H381.537a11.321,11.321,0,0,1,0-22.643h12.939a3.244,3.244,0,0,1,3.235,3.235v16.174A3.244,3.244,0,0,1,394.476,290.751Z" transform="translate(-294.2 -191.381)" fill="#fff" stroke="#00900b" stroke-width="3"/>
    <path id="Path_16" data-name="Path 16" d="M400.315,291.738a6.47,6.47,0,1,1-6.469,6.47A6.489,6.489,0,0,1,400.315,291.738Z" transform="translate(-312.978 -210.159)" fill="#00900b" stroke="#00900b" stroke-width="3"/>
    <path id="Path_17" data-name="Path 17" d="M401.933,307.44a6.518,6.518,0,0,1-5.337-10.189,6.3,6.3,0,0,0-2.75,5.337,6.489,6.489,0,0,0,6.469,6.47,6.736,6.736,0,0,0,5.337-2.75A6.522,6.522,0,0,1,401.933,307.44Z" transform="translate(-312.978 -214.54)" fill="#fff" stroke="#00900b" stroke-width="3"/>
    <path id="Path_18" data-name="Path 18" d="M92.19,429.794H8.087A8.111,8.111,0,0,1,0,421.707v3.235a8.111,8.111,0,0,0,8.087,8.087h84.1a8.111,8.111,0,0,0,8.087-8.087v-3.235A8.111,8.111,0,0,1,92.19,429.794Z" transform="translate(0 -313.442)" fill="#fff" stroke="#00900b" stroke-width="3"/>
    <path id="Path_19" data-name="Path 19" d="M92.19,128.854H6.47A6.489,6.489,0,0,1,0,122.384v3.235a6.489,6.489,0,0,0,6.47,6.47H92.19a8.111,8.111,0,0,1,8.087,8.087V136.94A8.111,8.111,0,0,0,92.19,128.854Z" transform="translate(0 -75.579)" fill="#fff" stroke="#00900b" stroke-width="3"/>
  </g>
</svg>
